<mxfile host="app.diagrams.net" modified="2024-05-28T12:04:36.757Z" agent="Mozilla/5.0 (Windows NT 10.0; Win64; x64) AppleWebKit/537.36 (KHTML, like Gecko) Chrome/121.0.0.0 Safari/537.36" etag="5wKT8fFz3pDZoahj1tK0" version="24.4.9" type="device" pages="2">
  <diagram name="Página-1" id="9TSSKfQeTwOCkLTWep75">
    <mxGraphModel dx="2603" dy="782" grid="1" gridSize="10" guides="1" tooltips="1" connect="1" arrows="1" fold="1" page="1" pageScale="1" pageWidth="1169" pageHeight="827" math="0" shadow="0">
      <root>
        <mxCell id="0" />
        <mxCell id="1" parent="0" />
        <mxCell id="TaYnSY0gdVnZ-xJ69Xp2-4" value="" style="edgeStyle=orthogonalEdgeStyle;rounded=0;orthogonalLoop=1;jettySize=auto;html=1;" parent="1" source="TaYnSY0gdVnZ-xJ69Xp2-1" target="TaYnSY0gdVnZ-xJ69Xp2-3" edge="1">
          <mxGeometry relative="1" as="geometry" />
        </mxCell>
        <mxCell id="TaYnSY0gdVnZ-xJ69Xp2-1" value="Inicio" style="ellipse;whiteSpace=wrap;html=1;" parent="1" vertex="1">
          <mxGeometry x="80" y="40" width="120" height="80" as="geometry" />
        </mxCell>
        <mxCell id="TaYnSY0gdVnZ-xJ69Xp2-10" value="" style="edgeStyle=orthogonalEdgeStyle;rounded=0;orthogonalLoop=1;jettySize=auto;html=1;" parent="1" source="TaYnSY0gdVnZ-xJ69Xp2-3" target="TaYnSY0gdVnZ-xJ69Xp2-9" edge="1">
          <mxGeometry relative="1" as="geometry" />
        </mxCell>
        <mxCell id="TaYnSY0gdVnZ-xJ69Xp2-3" value="Corte dos tecidos" style="rounded=0;whiteSpace=wrap;html=1;" parent="1" vertex="1">
          <mxGeometry x="80" y="170" width="120" height="60" as="geometry" />
        </mxCell>
        <mxCell id="TaYnSY0gdVnZ-xJ69Xp2-17" style="edgeStyle=orthogonalEdgeStyle;rounded=0;orthogonalLoop=1;jettySize=auto;html=1;entryX=0.5;entryY=0;entryDx=0;entryDy=0;" parent="1" source="TaYnSY0gdVnZ-xJ69Xp2-5" target="TaYnSY0gdVnZ-xJ69Xp2-16" edge="1">
          <mxGeometry relative="1" as="geometry">
            <Array as="points">
              <mxPoint x="-40" y="540" />
              <mxPoint x="175" y="540" />
            </Array>
          </mxGeometry>
        </mxCell>
        <mxCell id="TaYnSY0gdVnZ-xJ69Xp2-5" value="Costura dos bolsos" style="rounded=0;whiteSpace=wrap;html=1;" parent="1" vertex="1">
          <mxGeometry x="-100" y="410" width="120" height="60" as="geometry" />
        </mxCell>
        <mxCell id="TaYnSY0gdVnZ-xJ69Xp2-18" style="edgeStyle=orthogonalEdgeStyle;rounded=0;orthogonalLoop=1;jettySize=auto;html=1;entryX=0.5;entryY=0;entryDx=0;entryDy=0;" parent="1" source="TaYnSY0gdVnZ-xJ69Xp2-6" target="TaYnSY0gdVnZ-xJ69Xp2-16" edge="1">
          <mxGeometry relative="1" as="geometry" />
        </mxCell>
        <mxCell id="TaYnSY0gdVnZ-xJ69Xp2-6" value="Costura do gancho frontal e traseiro" style="rounded=0;whiteSpace=wrap;html=1;" parent="1" vertex="1">
          <mxGeometry x="50" y="410" width="120" height="60" as="geometry" />
        </mxCell>
        <mxCell id="TaYnSY0gdVnZ-xJ69Xp2-19" style="edgeStyle=orthogonalEdgeStyle;rounded=0;orthogonalLoop=1;jettySize=auto;html=1;entryX=0.5;entryY=0;entryDx=0;entryDy=0;" parent="1" source="TaYnSY0gdVnZ-xJ69Xp2-7" target="TaYnSY0gdVnZ-xJ69Xp2-16" edge="1">
          <mxGeometry relative="1" as="geometry" />
        </mxCell>
        <mxCell id="TaYnSY0gdVnZ-xJ69Xp2-7" value="Costura do Passador" style="rounded=0;whiteSpace=wrap;html=1;" parent="1" vertex="1">
          <mxGeometry x="200" y="410" width="120" height="60" as="geometry" />
        </mxCell>
        <mxCell id="TaYnSY0gdVnZ-xJ69Xp2-20" style="edgeStyle=orthogonalEdgeStyle;rounded=0;orthogonalLoop=1;jettySize=auto;html=1;entryX=0.5;entryY=0;entryDx=0;entryDy=0;" parent="1" source="TaYnSY0gdVnZ-xJ69Xp2-8" target="TaYnSY0gdVnZ-xJ69Xp2-16" edge="1">
          <mxGeometry relative="1" as="geometry">
            <Array as="points">
              <mxPoint x="420" y="540" />
              <mxPoint x="175" y="540" />
            </Array>
          </mxGeometry>
        </mxCell>
        <mxCell id="TaYnSY0gdVnZ-xJ69Xp2-8" value="Costura das bocas" style="rounded=0;whiteSpace=wrap;html=1;" parent="1" vertex="1">
          <mxGeometry x="360" y="410" width="120" height="60" as="geometry" />
        </mxCell>
        <mxCell id="TaYnSY0gdVnZ-xJ69Xp2-11" style="edgeStyle=orthogonalEdgeStyle;rounded=0;orthogonalLoop=1;jettySize=auto;html=1;entryX=0.5;entryY=0;entryDx=0;entryDy=0;" parent="1" source="TaYnSY0gdVnZ-xJ69Xp2-9" target="TaYnSY0gdVnZ-xJ69Xp2-6" edge="1">
          <mxGeometry relative="1" as="geometry" />
        </mxCell>
        <mxCell id="TaYnSY0gdVnZ-xJ69Xp2-12" style="edgeStyle=orthogonalEdgeStyle;rounded=0;orthogonalLoop=1;jettySize=auto;html=1;exitX=0.75;exitY=1;exitDx=0;exitDy=0;entryX=0.5;entryY=0;entryDx=0;entryDy=0;" parent="1" source="TaYnSY0gdVnZ-xJ69Xp2-9" target="TaYnSY0gdVnZ-xJ69Xp2-7" edge="1">
          <mxGeometry relative="1" as="geometry">
            <mxPoint x="260" y="400" as="targetPoint" />
          </mxGeometry>
        </mxCell>
        <mxCell id="TaYnSY0gdVnZ-xJ69Xp2-14" style="edgeStyle=orthogonalEdgeStyle;rounded=0;orthogonalLoop=1;jettySize=auto;html=1;exitX=0.25;exitY=1;exitDx=0;exitDy=0;entryX=0.5;entryY=0;entryDx=0;entryDy=0;" parent="1" source="TaYnSY0gdVnZ-xJ69Xp2-9" target="TaYnSY0gdVnZ-xJ69Xp2-5" edge="1">
          <mxGeometry relative="1" as="geometry" />
        </mxCell>
        <mxCell id="TaYnSY0gdVnZ-xJ69Xp2-9" value="Escolher modelo" style="rounded=0;whiteSpace=wrap;html=1;" parent="1" vertex="1">
          <mxGeometry x="80" y="270" width="120" height="60" as="geometry" />
        </mxCell>
        <mxCell id="TaYnSY0gdVnZ-xJ69Xp2-13" style="edgeStyle=orthogonalEdgeStyle;rounded=0;orthogonalLoop=1;jettySize=auto;html=1;exitX=1;exitY=1;exitDx=0;exitDy=0;entryX=0.567;entryY=0.017;entryDx=0;entryDy=0;entryPerimeter=0;" parent="1" source="TaYnSY0gdVnZ-xJ69Xp2-9" target="TaYnSY0gdVnZ-xJ69Xp2-8" edge="1">
          <mxGeometry relative="1" as="geometry">
            <Array as="points">
              <mxPoint x="200" y="370" />
              <mxPoint x="428" y="370" />
            </Array>
          </mxGeometry>
        </mxCell>
        <mxCell id="TaYnSY0gdVnZ-xJ69Xp2-22" style="edgeStyle=orthogonalEdgeStyle;rounded=0;orthogonalLoop=1;jettySize=auto;html=1;" parent="1" source="TaYnSY0gdVnZ-xJ69Xp2-16" target="TaYnSY0gdVnZ-xJ69Xp2-21" edge="1">
          <mxGeometry relative="1" as="geometry" />
        </mxCell>
        <mxCell id="TaYnSY0gdVnZ-xJ69Xp2-26" value="" style="edgeStyle=orthogonalEdgeStyle;rounded=0;orthogonalLoop=1;jettySize=auto;html=1;" parent="1" source="TaYnSY0gdVnZ-xJ69Xp2-16" target="TaYnSY0gdVnZ-xJ69Xp2-25" edge="1">
          <mxGeometry relative="1" as="geometry" />
        </mxCell>
        <mxCell id="TaYnSY0gdVnZ-xJ69Xp2-16" value="Peças dentro da especificação?" style="rhombus;whiteSpace=wrap;html=1;" parent="1" vertex="1">
          <mxGeometry x="100" y="610" width="150" height="140" as="geometry" />
        </mxCell>
        <mxCell id="TaYnSY0gdVnZ-xJ69Xp2-23" style="edgeStyle=orthogonalEdgeStyle;rounded=0;orthogonalLoop=1;jettySize=auto;html=1;entryX=0;entryY=0.5;entryDx=0;entryDy=0;" parent="1" source="TaYnSY0gdVnZ-xJ69Xp2-21" target="TaYnSY0gdVnZ-xJ69Xp2-3" edge="1">
          <mxGeometry relative="1" as="geometry">
            <Array as="points">
              <mxPoint x="-250" y="680" />
              <mxPoint x="-250" y="200" />
            </Array>
          </mxGeometry>
        </mxCell>
        <mxCell id="TaYnSY0gdVnZ-xJ69Xp2-21" value="Desmanchar e Refazer" style="rounded=0;whiteSpace=wrap;html=1;" parent="1" vertex="1">
          <mxGeometry x="-140" y="640" width="140" height="80" as="geometry" />
        </mxCell>
        <mxCell id="TaYnSY0gdVnZ-xJ69Xp2-24" value="Não" style="text;html=1;align=center;verticalAlign=middle;whiteSpace=wrap;rounded=0;" parent="1" vertex="1">
          <mxGeometry x="30" y="650" width="60" height="30" as="geometry" />
        </mxCell>
        <mxCell id="TaYnSY0gdVnZ-xJ69Xp2-28" value="" style="edgeStyle=orthogonalEdgeStyle;rounded=0;orthogonalLoop=1;jettySize=auto;html=1;" parent="1" source="TaYnSY0gdVnZ-xJ69Xp2-25" target="TaYnSY0gdVnZ-xJ69Xp2-27" edge="1">
          <mxGeometry relative="1" as="geometry" />
        </mxCell>
        <mxCell id="TaYnSY0gdVnZ-xJ69Xp2-25" value="Junção de todas as partes" style="rounded=0;whiteSpace=wrap;html=1;" parent="1" vertex="1">
          <mxGeometry x="360" y="635" width="160" height="90" as="geometry" />
        </mxCell>
        <mxCell id="TaYnSY0gdVnZ-xJ69Xp2-31" value="" style="edgeStyle=orthogonalEdgeStyle;rounded=0;orthogonalLoop=1;jettySize=auto;html=1;" parent="1" source="TaYnSY0gdVnZ-xJ69Xp2-27" target="TaYnSY0gdVnZ-xJ69Xp2-30" edge="1">
          <mxGeometry relative="1" as="geometry" />
        </mxCell>
        <mxCell id="TaYnSY0gdVnZ-xJ69Xp2-27" value="Colocar Botões" style="rounded=0;whiteSpace=wrap;html=1;" parent="1" vertex="1">
          <mxGeometry x="375" y="820" width="130" height="80" as="geometry" />
        </mxCell>
        <mxCell id="TaYnSY0gdVnZ-xJ69Xp2-29" value="Sim" style="text;html=1;align=center;verticalAlign=middle;whiteSpace=wrap;rounded=0;" parent="1" vertex="1">
          <mxGeometry x="270" y="650" width="60" height="30" as="geometry" />
        </mxCell>
        <mxCell id="TaYnSY0gdVnZ-xJ69Xp2-33" value="" style="edgeStyle=orthogonalEdgeStyle;rounded=0;orthogonalLoop=1;jettySize=auto;html=1;" parent="1" source="TaYnSY0gdVnZ-xJ69Xp2-30" target="TaYnSY0gdVnZ-xJ69Xp2-32" edge="1">
          <mxGeometry relative="1" as="geometry" />
        </mxCell>
        <mxCell id="TaYnSY0gdVnZ-xJ69Xp2-30" value="Etiquetar" style="rounded=0;whiteSpace=wrap;html=1;" parent="1" vertex="1">
          <mxGeometry x="140" y="830" width="120" height="60" as="geometry" />
        </mxCell>
        <mxCell id="TaYnSY0gdVnZ-xJ69Xp2-36" value="" style="edgeStyle=orthogonalEdgeStyle;rounded=0;orthogonalLoop=1;jettySize=auto;html=1;" parent="1" source="TaYnSY0gdVnZ-xJ69Xp2-32" target="TaYnSY0gdVnZ-xJ69Xp2-34" edge="1">
          <mxGeometry relative="1" as="geometry" />
        </mxCell>
        <mxCell id="TaYnSY0gdVnZ-xJ69Xp2-32" value="Passar" style="rounded=0;whiteSpace=wrap;html=1;" parent="1" vertex="1">
          <mxGeometry x="-70" y="830" width="120" height="60" as="geometry" />
        </mxCell>
        <mxCell id="TaYnSY0gdVnZ-xJ69Xp2-37" value="" style="edgeStyle=orthogonalEdgeStyle;rounded=0;orthogonalLoop=1;jettySize=auto;html=1;" parent="1" source="TaYnSY0gdVnZ-xJ69Xp2-34" target="TaYnSY0gdVnZ-xJ69Xp2-35" edge="1">
          <mxGeometry relative="1" as="geometry" />
        </mxCell>
        <mxCell id="TaYnSY0gdVnZ-xJ69Xp2-34" value="Dobrar e Embalar" style="rounded=0;whiteSpace=wrap;html=1;" parent="1" vertex="1">
          <mxGeometry x="-240" y="830" width="120" height="60" as="geometry" />
        </mxCell>
        <mxCell id="TaYnSY0gdVnZ-xJ69Xp2-39" value="" style="edgeStyle=orthogonalEdgeStyle;rounded=0;orthogonalLoop=1;jettySize=auto;html=1;" parent="1" source="TaYnSY0gdVnZ-xJ69Xp2-35" target="TaYnSY0gdVnZ-xJ69Xp2-38" edge="1">
          <mxGeometry relative="1" as="geometry" />
        </mxCell>
        <mxCell id="TaYnSY0gdVnZ-xJ69Xp2-35" value="Estocar" style="rounded=0;whiteSpace=wrap;html=1;" parent="1" vertex="1">
          <mxGeometry x="-410" y="830" width="120" height="60" as="geometry" />
        </mxCell>
        <mxCell id="TaYnSY0gdVnZ-xJ69Xp2-41" style="edgeStyle=orthogonalEdgeStyle;rounded=0;orthogonalLoop=1;jettySize=auto;html=1;" parent="1" source="TaYnSY0gdVnZ-xJ69Xp2-38" target="TaYnSY0gdVnZ-xJ69Xp2-40" edge="1">
          <mxGeometry relative="1" as="geometry" />
        </mxCell>
        <mxCell id="TaYnSY0gdVnZ-xJ69Xp2-38" value="Expedição" style="rounded=0;whiteSpace=wrap;html=1;" parent="1" vertex="1">
          <mxGeometry x="-410" y="970" width="120" height="60" as="geometry" />
        </mxCell>
        <mxCell id="TaYnSY0gdVnZ-xJ69Xp2-40" value="Fim" style="ellipse;whiteSpace=wrap;html=1;" parent="1" vertex="1">
          <mxGeometry x="-210" y="960" width="120" height="80" as="geometry" />
        </mxCell>
      </root>
    </mxGraphModel>
  </diagram>
  <diagram id="03uwuYIyw6LyQyXoIFv_" name="Página-2">
    <mxGraphModel dx="1834" dy="782" grid="1" gridSize="16" guides="1" tooltips="1" connect="1" arrows="1" fold="1" page="0" pageScale="1" pageWidth="827" pageHeight="1169" background="none" math="0" shadow="0">
      <root>
        <mxCell id="0" />
        <mxCell id="1" parent="0" />
        <mxCell id="QWP3OLxAv8EGIyvn8U0P-1" value="\" style="rounded=1;whiteSpace=wrap;html=1;rotation=90;strokeWidth=3;fillColor=#FFFFFF;strokeColor=#000000;gradientDirection=east;gradientColor=#CCFFFF;" vertex="1" parent="1">
          <mxGeometry x="160" y="336" width="460" height="278" as="geometry" />
        </mxCell>
        <mxCell id="eHV51keeRMzA72L8k5K_-1" value="&lt;b&gt;cortes de tecidos&lt;/b&gt;" style="rounded=1;whiteSpace=wrap;html=1;" vertex="1" parent="1">
          <mxGeometry x="270" y="272" width="240" height="16" as="geometry" />
        </mxCell>
        <mxCell id="xh2znsZFvg7PgwtZTkOP-1" value="&lt;b&gt;tamanho do corte&lt;/b&gt;" style="rounded=0;whiteSpace=wrap;html=1;" vertex="1" parent="1">
          <mxGeometry x="288" y="320" width="120" height="16" as="geometry" />
        </mxCell>
        <mxCell id="xh2znsZFvg7PgwtZTkOP-2" value="&lt;b&gt;tipo do corte&lt;/b&gt;" style="rounded=0;whiteSpace=wrap;html=1;" vertex="1" parent="1">
          <mxGeometry x="288" y="368" width="120" height="16" as="geometry" />
        </mxCell>
        <mxCell id="xh2znsZFvg7PgwtZTkOP-3" value="&lt;b&gt;corte com maquina?&lt;/b&gt;" style="rounded=0;whiteSpace=wrap;html=1;" vertex="1" parent="1">
          <mxGeometry x="288" y="416" width="120" height="16" as="geometry" />
        </mxCell>
        <mxCell id="xh2znsZFvg7PgwtZTkOP-4" value="&lt;b&gt;corte feito a mão?&lt;/b&gt;" style="rounded=0;whiteSpace=wrap;html=1;" vertex="1" parent="1">
          <mxGeometry x="288" y="467" width="120" height="16" as="geometry" />
        </mxCell>
        <mxCell id="xh2znsZFvg7PgwtZTkOP-5" value="" style="rounded=0;whiteSpace=wrap;html=1;" vertex="1" parent="1">
          <mxGeometry x="432" y="320" width="32" height="16" as="geometry" />
        </mxCell>
        <mxCell id="xh2znsZFvg7PgwtZTkOP-6" value="&lt;b&gt;tamanho do corte&lt;/b&gt;" style="rounded=0;whiteSpace=wrap;html=1;" vertex="1" parent="1">
          <mxGeometry x="672" y="304" width="120" height="16" as="geometry" />
        </mxCell>
        <mxCell id="xh2znsZFvg7PgwtZTkOP-9" value="" style="rounded=0;whiteSpace=wrap;html=1;" vertex="1" parent="1">
          <mxGeometry x="432" y="368" width="32" height="16" as="geometry" />
        </mxCell>
        <mxCell id="xh2znsZFvg7PgwtZTkOP-10" value="" style="rounded=0;whiteSpace=wrap;html=1;" vertex="1" parent="1">
          <mxGeometry x="432" y="416" width="32" height="16" as="geometry" />
        </mxCell>
        <mxCell id="xh2znsZFvg7PgwtZTkOP-11" value="" style="rounded=0;whiteSpace=wrap;html=1;" vertex="1" parent="1">
          <mxGeometry x="432" y="467" width="32" height="16" as="geometry" />
        </mxCell>
        <mxCell id="xh2znsZFvg7PgwtZTkOP-13" value="" style="rounded=0;whiteSpace=wrap;html=1;" vertex="1" parent="1">
          <mxGeometry x="848" y="304" width="32" height="16" as="geometry" />
        </mxCell>
        <mxCell id="xh2znsZFvg7PgwtZTkOP-15" value="&lt;b&gt;dia para a entrega&lt;/b&gt;" style="rounded=0;whiteSpace=wrap;html=1;" vertex="1" parent="1">
          <mxGeometry x="288" y="512" width="120" height="16" as="geometry" />
        </mxCell>
        <mxCell id="xh2znsZFvg7PgwtZTkOP-23" value="&lt;b&gt;tamanho do corte&lt;/b&gt;" style="rounded=0;whiteSpace=wrap;html=1;" vertex="1" parent="1">
          <mxGeometry x="672" y="304" width="120" height="16" as="geometry" />
        </mxCell>
        <mxCell id="xh2znsZFvg7PgwtZTkOP-40" value="&lt;b&gt;tamanho do corte&lt;/b&gt;" style="rounded=0;whiteSpace=wrap;html=1;" vertex="1" parent="1">
          <mxGeometry x="672" y="304" width="120" height="16" as="geometry" />
        </mxCell>
        <mxCell id="xh2znsZFvg7PgwtZTkOP-49" value="/&amp;nbsp; &amp;nbsp; /" style="rounded=0;whiteSpace=wrap;html=1;" vertex="1" parent="1">
          <mxGeometry x="432" y="512" width="64" height="16" as="geometry" />
        </mxCell>
        <mxCell id="xh2znsZFvg7PgwtZTkOP-50" value="" style="shape=singleArrow;whiteSpace=wrap;html=1;" vertex="1" parent="1">
          <mxGeometry x="478" y="656" width="32" height="16" as="geometry" />
        </mxCell>
        <mxCell id="xh2znsZFvg7PgwtZTkOP-51" value="" style="shape=singleArrow;whiteSpace=wrap;html=1;rotation=-180;" vertex="1" parent="1">
          <mxGeometry x="270" y="656" width="32" height="16" as="geometry" />
        </mxCell>
        <mxCell id="xh2znsZFvg7PgwtZTkOP-52" value="&lt;b&gt;proximo&lt;/b&gt;" style="rounded=0;whiteSpace=wrap;html=1;" vertex="1" parent="1">
          <mxGeometry x="432" y="624" width="78" height="16" as="geometry" />
        </mxCell>
        <mxCell id="xh2znsZFvg7PgwtZTkOP-54" value="&lt;b&gt;voltar&lt;/b&gt;" style="rounded=0;whiteSpace=wrap;html=1;" vertex="1" parent="1">
          <mxGeometry x="270" y="624" width="78" height="16" as="geometry" />
        </mxCell>
        <mxCell id="xh2znsZFvg7PgwtZTkOP-56" value="" style="rounded=1;whiteSpace=wrap;html=1;rotation=90;strokeWidth=3;fillColor=#FFFFFF;strokeColor=#000000;gradientDirection=east;gradientColor=#CCFFFF;" vertex="1" parent="1">
          <mxGeometry x="134" y="954" width="512" height="278" as="geometry" />
        </mxCell>
        <mxCell id="xh2znsZFvg7PgwtZTkOP-68" value="" style="shape=singleArrow;whiteSpace=wrap;html=1;" vertex="1" parent="1">
          <mxGeometry x="478" y="1296" width="32" height="16" as="geometry" />
        </mxCell>
        <mxCell id="xh2znsZFvg7PgwtZTkOP-69" value="" style="shape=singleArrow;whiteSpace=wrap;html=1;rotation=-180;" vertex="1" parent="1">
          <mxGeometry x="270" y="1296" width="32" height="16" as="geometry" />
        </mxCell>
        <mxCell id="xh2znsZFvg7PgwtZTkOP-70" value="&lt;b&gt;proximo&lt;/b&gt;" style="rounded=0;whiteSpace=wrap;html=1;" vertex="1" parent="1">
          <mxGeometry x="432" y="1264" width="78" height="16" as="geometry" />
        </mxCell>
        <mxCell id="xh2znsZFvg7PgwtZTkOP-71" value="&lt;b&gt;voltar&lt;/b&gt;" style="rounded=0;whiteSpace=wrap;html=1;" vertex="1" parent="1">
          <mxGeometry x="270" y="1264" width="78" height="16" as="geometry" />
        </mxCell>
        <mxCell id="nzPtJFANLFk8uC_2imL9-1" value="&lt;b&gt;tamanho do corte&lt;/b&gt;" style="rounded=0;whiteSpace=wrap;html=1;" vertex="1" parent="1">
          <mxGeometry x="672" y="832" width="120" height="16" as="geometry" />
        </mxCell>
        <mxCell id="nzPtJFANLFk8uC_2imL9-2" value="" style="rounded=0;whiteSpace=wrap;html=1;" vertex="1" parent="1">
          <mxGeometry x="491" y="912" width="32" height="16" as="geometry" />
        </mxCell>
        <mxCell id="nzPtJFANLFk8uC_2imL9-3" value="&lt;b&gt;tamanho do corte&lt;/b&gt;" style="rounded=0;whiteSpace=wrap;html=1;" vertex="1" parent="1">
          <mxGeometry x="672" y="832" width="120" height="16" as="geometry" />
        </mxCell>
        <mxCell id="nzPtJFANLFk8uC_2imL9-4" value="&lt;b&gt;tamanho do corte&lt;/b&gt;" style="rounded=0;whiteSpace=wrap;html=1;" vertex="1" parent="1">
          <mxGeometry x="672" y="832" width="120" height="16" as="geometry" />
        </mxCell>
        <mxCell id="nzPtJFANLFk8uC_2imL9-8" value="&lt;b&gt;modelo desejado quantidade e cor&lt;/b&gt;" style="rounded=0;whiteSpace=wrap;html=1;" vertex="1" parent="1">
          <mxGeometry x="278" y="864" width="224" height="16" as="geometry" />
        </mxCell>
        <mxCell id="qUjChprNsQ62awAjbrQo-1" value="&lt;ul class=&quot;i8Z77e&quot; style=&quot;margin: 0px; padding: 0px; color: rgb(32, 33, 36); font-family: &amp;quot;Google Sans&amp;quot;, arial, sans-serif; font-size: 16px; font-style: normal; font-variant-ligatures: normal; font-variant-caps: normal; font-weight: 400; letter-spacing: normal; orphans: 2; text-align: left; text-indent: 0px; text-transform: none; widows: 2; word-spacing: 0px; -webkit-text-stroke-width: 0px; white-space: normal; background-color: rgb(255, 255, 255); text-decoration-thickness: initial; text-decoration-style: initial; text-decoration-color: initial;&quot;&gt;&lt;li class=&quot;TrT0Xe&quot; style=&quot;margin: 0px 0px 4px; padding: 0px; list-style-type: disc;&quot;&gt;Algodão: versatilidade e conforto.&lt;/li&gt;&lt;li class=&quot;TrT0Xe&quot; style=&quot;margin: 0px 0px 4px; padding: 0px; list-style-type: disc;&quot;&gt;Seda: elegância e luxo.&lt;/li&gt;&lt;li class=&quot;TrT0Xe&quot; style=&quot;margin: 0px 0px 4px; padding: 0px; list-style-type: disc;&quot;&gt;Linho: leveza e frescor.&lt;/li&gt;&lt;li class=&quot;TrT0Xe&quot; style=&quot;margin: 0px 0px 4px; padding: 0px; list-style-type: disc;&quot;&gt;Poliéster: durabilidade e resistência.&lt;/li&gt;&lt;li class=&quot;TrT0Xe&quot; style=&quot;margin: 0px 0px 4px; padding: 0px; list-style-type: disc;&quot;&gt;Lã: aconchego e estilo.&lt;/li&gt;&lt;li class=&quot;TrT0Xe&quot; style=&quot;margin: 0px 0px 4px; padding: 0px; list-style-type: disc;&quot;&gt;Couro: a elegância duradoura.&lt;/li&gt;&lt;li class=&quot;TrT0Xe&quot; style=&quot;margin: 0px 0px 4px; padding: 0px; list-style-type: disc;&quot;&gt;Elastano: o&lt;span&gt;&amp;nbsp;&lt;/span&gt;&lt;b&gt;tecido&lt;/b&gt;&lt;span&gt;&amp;nbsp;&lt;/span&gt;que estica.&lt;/li&gt;&lt;li class=&quot;TrT0Xe&quot; style=&quot;margin: 0px 0px 4px; padding: 0px; list-style-type: disc;&quot;&gt;Nylon: durabilidade têxtil.&lt;/li&gt;&lt;/ul&gt;" style="text;whiteSpace=wrap;html=1;" vertex="1" parent="1">
          <mxGeometry x="-224" y="832" width="304" height="224" as="geometry" />
        </mxCell>
        <mxCell id="jiZZ0nCcF91Ejo1qYJh9-4" value="&lt;h3 style=&quot;box-sizing: border-box; font-family: &amp;quot;Museo Sans&amp;quot;; text-align: start;&quot; id=&quot;header-2&quot; class=&quot;vtex-wordpress-integration-2-x-wp-block-heading&quot;&gt;Camisetas e regatas básicas&lt;/h3&gt;" style="rounded=0;whiteSpace=wrap;html=1;" vertex="1" parent="1">
          <mxGeometry x="262" y="912" width="178" height="16" as="geometry" />
        </mxCell>
        <mxCell id="jiZZ0nCcF91Ejo1qYJh9-5" value="&lt;h3 style=&quot;box-sizing: border-box; font-family: &amp;quot;Museo Sans&amp;quot;; text-align: start;&quot; id=&quot;header-3&quot; class=&quot;vtex-wordpress-integration-2-x-wp-block-heading&quot;&gt;Calça jeans&lt;/h3&gt;" style="rounded=0;whiteSpace=wrap;html=1;" vertex="1" parent="1">
          <mxGeometry x="270" y="954" width="82" height="16" as="geometry" />
        </mxCell>
        <mxCell id="jiZZ0nCcF91Ejo1qYJh9-8" value="&lt;h3 style=&quot;box-sizing: border-box; font-family: &amp;quot;Museo Sans&amp;quot;; text-align: start;&quot; id=&quot;header-4&quot; class=&quot;vtex-wordpress-integration-2-x-wp-block-heading&quot;&gt;Shorts jeans&lt;/h3&gt;" style="rounded=0;whiteSpace=wrap;html=1;" vertex="1" parent="1">
          <mxGeometry x="270" y="992" width="82" height="16" as="geometry" />
        </mxCell>
        <mxCell id="jiZZ0nCcF91Ejo1qYJh9-9" value="&lt;h3 class=&quot;vtex-wordpress-integration-2-x-wp-block-heading&quot; id=&quot;header-5&quot; style=&quot;box-sizing: border-box; color: rgb(0, 0, 0); font-family: &amp;quot;Museo Sans&amp;quot;; font-style: normal; font-variant-ligatures: normal; font-variant-caps: normal; letter-spacing: normal; orphans: 2; text-align: start; text-indent: 0px; text-transform: none; widows: 2; word-spacing: 0px; -webkit-text-stroke-width: 0px; white-space: normal; background-color: rgb(255, 255, 255); text-decoration-thickness: initial; text-decoration-style: initial; text-decoration-color: initial;&quot;&gt;Blazer estruturado&lt;/h3&gt;" style="text;whiteSpace=wrap;html=1;" vertex="1" parent="1">
          <mxGeometry x="768" y="992" width="160" height="80" as="geometry" />
        </mxCell>
        <mxCell id="jiZZ0nCcF91Ejo1qYJh9-10" value="&lt;h3 class=&quot;vtex-wordpress-integration-2-x-wp-block-heading&quot; id=&quot;header-5&quot; style=&quot;box-sizing: border-box; color: rgb(0, 0, 0); font-family: &amp;quot;Museo Sans&amp;quot;; font-style: normal; font-variant-ligatures: normal; font-variant-caps: normal; letter-spacing: normal; orphans: 2; text-align: start; text-indent: 0px; text-transform: none; widows: 2; word-spacing: 0px; -webkit-text-stroke-width: 0px; white-space: normal; background-color: rgb(255, 255, 255); text-decoration-thickness: initial; text-decoration-style: initial; text-decoration-color: initial;&quot;&gt;Blazer estruturado&lt;/h3&gt;" style="text;whiteSpace=wrap;html=1;" vertex="1" parent="1">
          <mxGeometry x="704" y="1120" width="160" height="80" as="geometry" />
        </mxCell>
        <mxCell id="jiZZ0nCcF91Ejo1qYJh9-13" value="&lt;h3 style=&quot;box-sizing: border-box; font-family: &amp;quot;Museo Sans&amp;quot;; text-align: start;&quot; id=&quot;header-6&quot; class=&quot;vtex-wordpress-integration-2-x-wp-block-heading&quot;&gt;Vestido preto&amp;nbsp;&lt;/h3&gt;" style="rounded=0;whiteSpace=wrap;html=1;" vertex="1" parent="1">
          <mxGeometry x="270" y="1024" width="98" height="16" as="geometry" />
        </mxCell>
        <mxCell id="jiZZ0nCcF91Ejo1qYJh9-16" value="&lt;h3 style=&quot;box-sizing: border-box; font-family: &amp;quot;Museo Sans&amp;quot;; text-align: start;&quot; id=&quot;header-5&quot; class=&quot;vtex-wordpress-integration-2-x-wp-block-heading&quot;&gt;Blazer estruturado&lt;/h3&gt;" style="rounded=0;whiteSpace=wrap;html=1;" vertex="1" parent="1">
          <mxGeometry x="270" y="1056" width="130" height="16" as="geometry" />
        </mxCell>
        <mxCell id="jiZZ0nCcF91Ejo1qYJh9-17" value="&lt;b&gt;tamanho do corte&lt;/b&gt;" style="rounded=0;whiteSpace=wrap;html=1;" vertex="1" parent="1">
          <mxGeometry x="672" y="896" width="120" height="16" as="geometry" />
        </mxCell>
        <mxCell id="jiZZ0nCcF91Ejo1qYJh9-18" value="&lt;b&gt;tamanho do corte&lt;/b&gt;" style="rounded=0;whiteSpace=wrap;html=1;" vertex="1" parent="1">
          <mxGeometry x="672" y="896" width="120" height="16" as="geometry" />
        </mxCell>
        <mxCell id="jiZZ0nCcF91Ejo1qYJh9-19" value="&lt;h3 style=&quot;box-sizing: border-box; font-family: &amp;quot;Museo Sans&amp;quot;; text-align: start;&quot; id=&quot;header-7&quot; class=&quot;vtex-wordpress-integration-2-x-wp-block-heading&quot;&gt;Calça de alfaiataria&lt;/h3&gt;" style="rounded=0;whiteSpace=wrap;html=1;" vertex="1" parent="1">
          <mxGeometry x="270" y="1085" width="130" height="16" as="geometry" />
        </mxCell>
        <mxCell id="jiZZ0nCcF91Ejo1qYJh9-22" value="&lt;h3 style=&quot;box-sizing: border-box; font-family: &amp;quot;Museo Sans&amp;quot;; text-align: start;&quot; id=&quot;header-8&quot; class=&quot;vtex-wordpress-integration-2-x-wp-block-heading&quot;&gt;Casaco sobretudo&lt;/h3&gt;" style="rounded=0;whiteSpace=wrap;html=1;" vertex="1" parent="1">
          <mxGeometry x="270" y="1120" width="120" height="16" as="geometry" />
        </mxCell>
        <mxCell id="jiZZ0nCcF91Ejo1qYJh9-23" value="&lt;h3 style=&quot;box-sizing: border-box; font-family: &amp;quot;Museo Sans&amp;quot;; text-align: start;&quot; id=&quot;header-9&quot; class=&quot;vtex-wordpress-integration-2-x-wp-block-heading&quot;&gt;Jaqueta jeans e de couro&lt;/h3&gt;" style="rounded=0;whiteSpace=wrap;html=1;" vertex="1" parent="1">
          <mxGeometry x="270" y="1152" width="162" height="16" as="geometry" />
        </mxCell>
        <mxCell id="jiZZ0nCcF91Ejo1qYJh9-24" value="" style="rounded=0;whiteSpace=wrap;html=1;" vertex="1" parent="1">
          <mxGeometry x="450" y="912" width="32" height="16" as="geometry" />
        </mxCell>
        <mxCell id="jiZZ0nCcF91Ejo1qYJh9-26" value="" style="rounded=0;whiteSpace=wrap;html=1;" vertex="1" parent="1">
          <mxGeometry x="358" y="954" width="32" height="16" as="geometry" />
        </mxCell>
        <mxCell id="jiZZ0nCcF91Ejo1qYJh9-27" value="" style="rounded=0;whiteSpace=wrap;html=1;" vertex="1" parent="1">
          <mxGeometry x="400" y="954" width="32" height="16" as="geometry" />
        </mxCell>
        <mxCell id="jiZZ0nCcF91Ejo1qYJh9-28" value="" style="rounded=0;whiteSpace=wrap;html=1;" vertex="1" parent="1">
          <mxGeometry x="358" y="992" width="32" height="16" as="geometry" />
        </mxCell>
        <mxCell id="jiZZ0nCcF91Ejo1qYJh9-29" value="" style="rounded=0;whiteSpace=wrap;html=1;" vertex="1" parent="1">
          <mxGeometry x="400" y="992" width="32" height="16" as="geometry" />
        </mxCell>
        <mxCell id="jiZZ0nCcF91Ejo1qYJh9-30" value="" style="rounded=0;whiteSpace=wrap;html=1;" vertex="1" parent="1">
          <mxGeometry x="379" y="1024" width="32" height="16" as="geometry" />
        </mxCell>
        <mxCell id="jiZZ0nCcF91Ejo1qYJh9-31" value="" style="rounded=0;whiteSpace=wrap;html=1;" vertex="1" parent="1">
          <mxGeometry x="421" y="1024" width="32" height="16" as="geometry" />
        </mxCell>
        <mxCell id="jiZZ0nCcF91Ejo1qYJh9-32" value="" style="rounded=0;whiteSpace=wrap;html=1;" vertex="1" parent="1">
          <mxGeometry x="408" y="1056" width="32" height="16" as="geometry" />
        </mxCell>
        <mxCell id="jiZZ0nCcF91Ejo1qYJh9-33" value="" style="rounded=0;whiteSpace=wrap;html=1;" vertex="1" parent="1">
          <mxGeometry x="450" y="1056" width="32" height="16" as="geometry" />
        </mxCell>
        <mxCell id="jiZZ0nCcF91Ejo1qYJh9-34" value="" style="rounded=0;whiteSpace=wrap;html=1;" vertex="1" parent="1">
          <mxGeometry x="408" y="1085" width="32" height="16" as="geometry" />
        </mxCell>
        <mxCell id="jiZZ0nCcF91Ejo1qYJh9-35" value="" style="rounded=0;whiteSpace=wrap;html=1;" vertex="1" parent="1">
          <mxGeometry x="450" y="1085" width="32" height="16" as="geometry" />
        </mxCell>
        <mxCell id="jiZZ0nCcF91Ejo1qYJh9-36" value="" style="rounded=0;whiteSpace=wrap;html=1;" vertex="1" parent="1">
          <mxGeometry x="400" y="1120" width="32" height="16" as="geometry" />
        </mxCell>
        <mxCell id="jiZZ0nCcF91Ejo1qYJh9-37" value="" style="rounded=0;whiteSpace=wrap;html=1;" vertex="1" parent="1">
          <mxGeometry x="442" y="1120" width="32" height="16" as="geometry" />
        </mxCell>
        <mxCell id="jiZZ0nCcF91Ejo1qYJh9-38" value="" style="rounded=0;whiteSpace=wrap;html=1;" vertex="1" parent="1">
          <mxGeometry x="440" y="1152" width="32" height="16" as="geometry" />
        </mxCell>
        <mxCell id="jiZZ0nCcF91Ejo1qYJh9-39" value="" style="rounded=0;whiteSpace=wrap;html=1;" vertex="1" parent="1">
          <mxGeometry x="482" y="1152" width="32" height="16" as="geometry" />
        </mxCell>
      </root>
    </mxGraphModel>
  </diagram>
</mxfile>
